<svg id="LOGO" xmlns="http://www.w3.org/2000/svg" viewBox="0 0 722 158"><defs><style>.cls-1{fill:#f4970e;}.cls-2{fill:#fff;}.cls-3{fill:#5f6062;}</style></defs><title>Plan de travail 2</title><path class="cls-1" d="M595.28,1V156.49h70.77c33.5,0,54.94-29.85,54.94-63.48V1Z"/><path class="cls-2" d="M631,68.43a28,28,0,1,0-27.78-28,27.87,27.87,0,0,0,27.78,28"/><path class="cls-2" d="M685.64,68.43a28,28,0,1,0-27.78-28,27.89,27.89,0,0,0,27.78,28"/><path class="cls-1" d="M631,50.71a10.26,10.26,0,1,0-10.19-10.25A10.21,10.21,0,0,0,631,50.71"/><path class="cls-1" d="M685.64,50.71a10.26,10.26,0,1,0-10.18-10.25,10.21,10.21,0,0,0,10.18,10.25"/><polygon class="cls-2" points="668.37 70.13 658.59 60.28 648.82 70.13 658.59 79.96 668.37 70.13"/><path class="cls-3" d="M3.63,94.18a13.52,13.52,0,0,0,7.58,2.5c2.58,0,5.16-.92,5.16-3.46,0-6.06-14.26-5.3-14.26-15.58,0-5,4-9.57,11.17-9.57a19.35,19.35,0,0,1,8.44,1.78V76.1a18.47,18.47,0,0,0-8.24-2.19c-2.12,0-4,.76-4,3.11,0,5.7,14.26,4.89,14.26,15.58,0,6.11-5.31,9.88-12.28,9.88A18,18,0,0,1,1,99.42Z"/><path class="cls-3" d="M30.22,68.41h8.7a16.47,16.47,0,0,1,7.53,1.43c3.64,1.73,5.61,5,5.61,9.68,0,3.92-1.67,8.1-6.62,10a19.86,19.86,0,0,1-7.13,1.17H37.14V102H30.22Zm8.49,16.65a8.07,8.07,0,0,0,3.59-.66c1.77-.81,2.58-2.55,2.58-4.89a5.23,5.23,0,0,0-2.43-4.68,7.48,7.48,0,0,0-3.84-.76H37.14v11Z"/><path class="cls-3" d="M57.21,85.27c0-10.18,7-17.21,17-17.21s17,7.08,17,17.21c0,10.28-7,17.21-17,17.21S57.21,95.5,57.21,85.27Zm26.59,0C83.8,78,80,73.91,74.2,73.91s-9.6,4-9.6,11.36,3.89,11.41,9.6,11.41S83.8,92.65,83.8,85.27Z"/><path class="cls-3" d="M97.65,68.41h10a16.43,16.43,0,0,1,7,1.27c3.84,1.68,5.31,4.89,5.31,8.45a8.78,8.78,0,0,1-6.47,8.61v.1c1,.56,2.48,2.39,4.25,5.5l5.41,9.62h-7.94l-4.4-8c-1.67-3.16-2.83-4.43-3.64-4.63h-2.53V102H97.65Zm9.5,15.23a6.65,6.65,0,0,0,3.34-.71,4.61,4.61,0,0,0,2.22-4.07,4.42,4.42,0,0,0-2.28-4.07,6,6,0,0,0-3.24-.71h-2.63v9.57Z"/><path class="cls-3" d="M133.7,74.06H124V68.41h27.15l-1.72,5.65h-8.8V102H133.7Z"/><path class="cls-3" d="M156.19,94.18a13.52,13.52,0,0,0,7.58,2.5c2.58,0,5.16-.92,5.16-3.46,0-6.06-14.26-5.3-14.26-15.58,0-5,4-9.57,11.17-9.57a19.35,19.35,0,0,1,8.44,1.78V76.1A18.47,18.47,0,0,0,166,73.91c-2.12,0-4,.76-4,3.11,0,5.7,14.26,4.89,14.26,15.58,0,6.11-5.31,9.88-12.28,9.88a18,18,0,0,1-10.47-3.06Z"/><path class="cls-3" d="M193.45,96.21A14.92,14.92,0,0,1,192,89.29V68.41h6.93V88.88a9.71,9.71,0,0,0,1,4.43c1.16,2.19,3.39,3.36,6.47,3.36s5.26-1.17,6.42-3.36a9.17,9.17,0,0,0,1-4.48V68.41h6.93V89.29a14.91,14.91,0,0,1-1.47,6.92c-2.17,4.28-6.72,6.26-12.89,6.26S195.62,100.49,193.45,96.21Z"/><path class="cls-3" d="M228.18,68.41h6.93l13.75,17.67c1.26,1.63,2.38,3.11,3.34,4.58h.1c-.05-1.73-.1-4-.1-5.55V68.41h6.93V102H252.8L238.49,83.59,235.05,79H235c.15,1.22.15,3.31.15,5v18h-6.93Z"/><path class="cls-3" d="M266.95,68.41h6.93V102h-6.93Z"/><path class="cls-3" d="M278,68.41h7.43l6.67,17.52c1,2.44,1.72,4.63,2.38,6.62h.1c.66-1.93,1.42-4.18,2.38-6.67l6.67-17.47h7.43l-13.7,33.81h-5.71Z"/><path class="cls-3" d="M315.22,68.41h19.26l-1.77,5.65H322.15v8h10.57v5.6H322.15v8.66h12.28V102H315.22Z"/><path class="cls-3" d="M341.21,68.41h10a16.43,16.43,0,0,1,7,1.27c3.84,1.68,5.31,4.89,5.31,8.45A8.78,8.78,0,0,1,357,86.74v.1c1,.56,2.48,2.39,4.25,5.5l5.41,9.62H358.7l-4.4-8c-1.67-3.16-2.83-4.43-3.64-4.63h-2.53V102h-6.93Zm9.5,15.23a6.65,6.65,0,0,0,3.34-.71,4.61,4.61,0,0,0,2.22-4.07A4.42,4.42,0,0,0,354,74.78a6,6,0,0,0-3.24-.71h-2.63v9.57Z"/><path class="cls-3" d="M373,94.18a13.51,13.51,0,0,0,7.58,2.5c2.58,0,5.16-.92,5.16-3.46,0-6.06-14.26-5.3-14.26-15.58,0-5,4-9.57,11.17-9.57A19.35,19.35,0,0,1,391,69.84V76.1a18.46,18.46,0,0,0-8.24-2.19c-2.12,0-4,.76-4,3.11,0,5.7,14.26,4.89,14.26,15.58,0,6.11-5.31,9.88-12.28,9.88a18,18,0,0,1-10.47-3.06Z"/><path class="cls-3" d="M399.54,68.41h6.93V102h-6.93Z"/><path class="cls-3" d="M420.67,74.06H411V68.41h27.15l-1.72,5.65h-8.8V102h-6.93Z"/><path class="cls-3" d="M448.62,68.26H454L467.58,102h-7.33l-3.18-8.2H445.74l-3.09,8.2h-7Zm6.32,19.91L453,82.52c-.81-2.44-1.27-3.87-1.52-5h-.1a50.54,50.54,0,0,1-1.67,5l-2,5.6Z"/><path class="cls-3" d="M471.73,68.41h6.93V102h-6.93Z"/><path class="cls-3" d="M486.44,68.41h10a16.43,16.43,0,0,1,7,1.27c3.84,1.68,5.31,4.89,5.31,8.45a8.78,8.78,0,0,1-6.47,8.61v.1c1,.56,2.48,2.39,4.25,5.5l5.41,9.62h-7.94l-4.4-8c-1.67-3.16-2.83-4.43-3.64-4.63h-2.53V102h-6.92Zm9.5,15.23a6.65,6.65,0,0,0,3.34-.71,4.62,4.62,0,0,0,2.23-4.07,4.42,4.42,0,0,0-2.27-4.07,6,6,0,0,0-3.24-.71h-2.63v9.57Z"/><path class="cls-3" d="M517.07,68.41h19.26l-1.77,5.65H524v8h10.56v5.6H524v8.66h12.28V102H517.07Z"/><path class="cls-3" d="M544.16,94.18a13.53,13.53,0,0,0,7.59,2.5c2.58,0,5.15-.92,5.15-3.46,0-6.06-14.25-5.3-14.25-15.58,0-5,4-9.57,11.17-9.57a19.35,19.35,0,0,1,8.44,1.78V76.1A18.48,18.48,0,0,0,554,73.91c-2.12,0-4,.76-4,3.11,0,5.7,14.25,4.89,14.25,15.58,0,6.11-5.31,9.88-12.28,9.88a18,18,0,0,1-10.47-3.06Z"/><path class="cls-3" d="M331.4,122.93h4.5v29.84h12.18v3.72H331.4Z"/><path class="cls-3" d="M362.59,122.83h3.24l12.94,33.66H374l-3.29-8.81H357.79l-3.24,8.81H349.9ZM369.26,144l-3.08-8.76-1.87-5.6h-.1c-.35,1.22-.91,2.8-1.92,5.65L359.15,144Z"/><path class="cls-3" d="M384.38,150.07a16.49,16.49,0,0,1-.91-5.75V122.93H388v21a11.63,11.63,0,0,0,.76,4.58c1.16,3,3.69,4.58,7.59,4.58s6.47-1.63,7.63-4.58a13,13,0,0,0,.71-4.74V122.93h4.5v21.39a14.78,14.78,0,0,1-1,5.86c-1.77,4.48-5.86,6.82-11.83,6.82C390.19,157,386.15,154.61,384.38,150.07Z"/><path class="cls-3" d="M417.59,150.84a13,13,0,0,0,7.28,2.29c3.34,0,6.37-1.32,6.37-4.94,0-7.59-14.56-6.67-14.56-16.75,0-4.84,3.69-8.81,10.11-8.81a17.66,17.66,0,0,1,7.53,1.63v4.12a15.74,15.74,0,0,0-7.38-1.88c-2.78,0-5.56,1.17-5.56,4.48,0,7.13,14.61,6.36,14.61,16.85,0,5.7-4.6,9.17-11.07,9.17a16.46,16.46,0,0,1-9.2-2.65Z"/><path class="cls-3" d="M452.06,122.83h3.24l12.94,33.66h-4.8l-3.28-8.81H447.26L444,156.49h-4.65ZM458.74,144l-3.09-8.76-1.87-5.6h-.1c-.35,1.22-.91,2.8-1.92,5.65L448.63,144Z"/><path class="cls-3" d="M473.2,122.93h4.34l15.07,19.76c2,2.55,3.39,4.58,4.5,6.26h.1c-.1-1.83-.1-3.46-.1-5.86V122.93h4.45v33.56h-3.9L482,136c-1.87-2.44-3.23-4.38-4.4-6.06h-.1c.1,1.58.15,3.21.15,5.6v21h-4.5Z"/><path class="cls-3" d="M510,122.93h4.34l15.07,19.76c2,2.55,3.39,4.58,4.5,6.26h.1c-.1-1.83-.1-3.46-.1-5.86V122.93h4.45v33.56h-3.9L518.89,136c-1.87-2.44-3.23-4.38-4.4-6.06h-.1c.1,1.58.15,3.21.15,5.6v21H510Z"/><path class="cls-3" d="M546.9,122.93h16.83l-1.32,3.72h-11v10.8h10.87v3.77H551.4v11.56h12.54v3.72h-17Z"/></svg>