<?xml version="1.0" encoding="UTF-8" standalone="no"?>
<!-- Created with Inkscape (http://www.inkscape.org/) -->

<svg
   xmlns:dc="http://purl.org/dc/elements/1.1/"
   xmlns:cc="http://creativecommons.org/ns#"
   xmlns:rdf="http://www.w3.org/1999/02/22-rdf-syntax-ns#"
   xmlns:svg="http://www.w3.org/2000/svg"
   xmlns="http://www.w3.org/2000/svg"
   xmlns:sodipodi="http://sodipodi.sourceforge.net/DTD/sodipodi-0.dtd"
   xmlns:inkscape="http://www.inkscape.org/namespaces/inkscape"
   version="1.1"
   id="svg3732"
   xml:space="preserve"
   width="1194.4667"
   height="376.26666"
   viewBox="0 0 1194.4667 376.26666"
   sodipodi:docname="logo_texte_statique_vert.svg"
   inkscape:version="0.92.3 (2405546, 2018-03-11)"><metadata
     id="metadata3738"><rdf:RDF><cc:Work
         rdf:about=""><dc:format>image/svg+xml</dc:format><dc:type
           rdf:resource="http://purl.org/dc/dcmitype/StillImage" /><dc:title></dc:title></cc:Work></rdf:RDF></metadata><defs
     id="defs3736" /><sodipodi:namedview
     pagecolor="#ffffff"
     bordercolor="#666666"
     borderopacity="1"
     objecttolerance="10"
     gridtolerance="10"
     guidetolerance="10"
     inkscape:pageopacity="0"
     inkscape:pageshadow="2"
     inkscape:window-width="1680"
     inkscape:window-height="1001"
     id="namedview3734"
     showgrid="false"
     inkscape:zoom="0.66975498"
     inkscape:cx="365.05888"
     inkscape:cy="188.13333"
     inkscape:window-x="0"
     inkscape:window-y="25"
     inkscape:window-maximized="1"
     inkscape:current-layer="g3742" /><g
     id="g3740"
     inkscape:groupmode="layer"
     inkscape:label="ink_ext_XXXXXX"
     transform="matrix(1.3333333,0,0,-1.3333333,0,376.26667)"><g
       id="g3742"
       transform="scale(0.1)"><path
         d="m 2461.12,1981.98 c -181.29,502.47 -662.11,840.06 -1196.47,840.06 -611.939,0 -1137.623,-435.9 -1249.9469,-1036.48 -8.32029,-44.48 -32.332,-201.97 7.9922,-361.23 28.6836,-113.32 115.4177,-193.6 204.1017,-193.6 7.816,0 15.66,0.63 23.469,1.91 37.093,6.08 64.054,12.41 85.363,23.22 0.465,-6.52 0.98,-11.41 1.562,-14.32 l 8.825,-44.12 88.402,16.8 -8.82,44.13 c -5.164,36.09 -2.946,473.23 10.414,586.77 l 5.258,44.69 -89.383,10.51 -5.262,-44.69 C 337.953,1781.95 332.875,1556.05 332.91,1399 l -14.324,-30.15 c -15.77,-33.2 -17.418,-36.67 -82.883,-47.41 -43.73,-7.06 -104.594,41.35 -125.762,124.97 -35.816,141.46 -14.2379,282.69 -6.773,322.61 104.367,558.01 592.844,963.02 1161.482,963.02 496.56,0 943.35,-313.7 1111.82,-780.6 l 6.99,-19.4 87.35,22.62 -9.69,27.32"
         style="fill:#50a537;fill-opacity:1;fill-rule:nonzero;stroke:none"
         id="path3744"
         inkscape:connector-curvature="0" /><path
         d="m 858.723,1879.18 -79.539,8.59 -4.301,-39.77 c -7.34,-67.93 -19.535,-259.55 -22.445,-411.01 -2.168,4.13 -4.329,8.22 -6.52,12.39 -68.004,129.23 -170.773,324.51 -168.789,387.92 l -1.246,34.15 1.676,15.49 -89.477,9.67 -4.84,-44.73 c -14.199,-131.38 -2.387,-518.16 6.684,-599.81 l 4.972,-44.73 89.454,9.94 -4.973,44.73 c -4.93,44.39 -10.918,197.31 -12.285,339.71 27.801,-57.7 61.465,-122.58 99.179,-194.25 32.204,-61.19 62.622,-118.99 80.707,-158.97 l 18.551,-41.01 2.844,1.8 77.484,17.61 -8.867,39.01 c -14.398,63.37 3.235,442.16 17.434,573.5 l 4.297,39.77"
         style="fill:#50a537;fill-opacity:1;fill-rule:nonzero;stroke:none"
         id="path3746"
         inkscape:connector-curvature="0" /><path
         d="m 1709.32,1817.8 c -24.83,0 -85.57,-89.67 -91.78,-263.55 -6.15,-173.08 48.91,-268.55 72.78,-269.4 h 0.28 c 24.55,0 85.28,89.66 91.48,263.54 6.16,173.1 -48.89,268.56 -72.76,269.41 z m -18.72,-622.95 c -1.16,0 -2.32,0.02 -3.49,0.06 -113.03,4.03 -165.81,185.44 -159.51,362.55 6.22,174.1 70.53,350.34 181.43,350.34 1.17,0 2.32,-0.02 3.49,-0.06 113.04,-4.03 165.81,-185.44 159.5,-362.55 -6.2,-174.1 -70.5,-350.34 -181.42,-350.34"
         style="fill:#50a537;fill-opacity:1;fill-rule:nonzero;stroke:none"
         id="path3748"
         inkscape:connector-curvature="0" /><path
         d="m 1321.25,1574.06 c -37.58,0 -73.29,18.13 -95.54,48.49 l -10.58,14.45 c 3.19,45.93 6.75,88.87 10.32,125.75 l 14.82,17.29 c 15.64,18.25 35.37,19.97 83.65,19.97 60.16,0 90.66,-35.9 90.66,-106.72 0,-57.64 -24.52,-119.23 -93.33,-119.23 z m 2.67,315.96 c -27.14,0 -56.21,-0.08 -84.15,-8.02 l 0.94,6.88 -89.18,12.16 -6.08,-44.59 c -15.54,-113.96 -39.16,-424.55 -28.9,-611.87 l 2.46,-44.93 89.87,4.92 -2.46,44.93 c -4.16,75.91 -2.55,172.82 1.82,268.05 33.33,-21.51 72.54,-33.49 113.01,-33.49 107.94,0 183.33,86.04 183.33,209.23 0,119.51 -70.91,196.73 -180.66,196.73"
         style="fill:#50a537;fill-opacity:1;fill-rule:nonzero;stroke:none"
         id="path3750"
         inkscape:connector-curvature="0" /><path
         d="m 2192.65,1288.6 c -67.73,4.54 -133.94,3.81 -179.05,2.65 -1.09,118.4 3.42,427.48 15.83,553.02 l 4.42,44.78 -89.56,8.86 -4.43,-44.78 c -15.2,-153.69 -18.61,-552.94 -15.12,-608.89 l 2.8,-44.91 7.52,0.46 0.04,-1.08 48.89,1.61 c 39.09,1.28 120.47,3.99 202.65,-1.52 l 44.9,-3 6,89.79 -44.89,3.01"
         style="fill:#50a537;fill-opacity:1;fill-rule:nonzero;stroke:none"
         id="path3752"
         inkscape:connector-curvature="0" /><path
         d="m 1297.42,2223.87 c -9.64,-2.89 -37.87,-16.21 -37.87,-16.21 l 35.93,-30 -50.93,25.63 c 0,0 -17.82,-8.59 -24.07,-12.5 -24.28,-15.18 -83.74,-60.22 -105.54,-76.84 l -9.05,4.35 46.68,35.82 7.5,73.34 5.41,-64.17 c 0,0 36.41,27.53 49.38,35 16.38,9.43 68.12,30.62 68.12,30.62 l 21.25,40.63 -11.25,-36.88 65.63,20.63 c 0,0 -44.38,-24.38 -61.19,-29.42 z m -340.686,63.17 63.126,-18.13 c 0,0 -18.83,38.06 -23.126,50.94 -5.793,17.4 -14.988,52.42 -17.187,70.63 -0.754,6.2 -1.563,25.31 -1.563,25.31 0,0 11.215,-41.26 15,-55 1.547,-5.63 6.25,-22.5 6.25,-22.5 l 18.746,51.25 -12.5,-58.75 c 0,0 16.81,-38.17 22.82,-51.56 4.82,-10.75 20.93,-44.69 20.93,-44.69 l 18.75,40 -12.5,-52.5 c 0,0 7.18,-44.06 9.07,-60.94 0.47,-4.28 0.45,-14.45 0.31,-23.08 l -12.62,6.07 c -1.32,23.38 -4.73,64.33 -13.01,80.45 -3.45,6.73 -13.75,27.5 -13.75,27.5 z m 572.496,28.75 c -26.29,-7.06 -108.75,-5 -108.75,-5 0,0 -96.04,-2 -127.5,-7.5 -31.45,-5.5 -88.75,-15 -122.5,-36.25 -16.08,-10.13 -45.74,-35.9 -55,-52.5 -3.59,-6.45 -7.49,-17.7 -11.15,-30.16 4.22,23.51 7.55,46.92 6.99,60.16 -1.36,32.01 -19.36,94.59 -31.67,124.17 -9.51,22.85 -34.79,61.47 -51.67,79.58 -12.64,13.57 -45.609,36.21 -59.996,47.92 -11.773,9.58 -44.168,41.67 -44.168,41.67 0,0 -22.261,-70.27 -24.582,-94.59 -3.242,-33.98 1.43,-100.82 10.414,-133.75 7.653,-28.05 32.817,-83.44 50.836,-106.25 14.414,-18.25 65.676,-57.09 78.376,-66.61 l -11.93,-24.8 C 896.441,1840.45 923.383,1389.17 943.059,1059.66 l 0.886,-14.91 c -16.871,-15.48 -49.625,-46.031 -59.711,-58.961 -10.461,-13.41 -32.015,-39.988 -40,-55 -8.589,-16.141 -25,-68.75 -25,-68.75 0,0 23.68,38.301 32.082,49.582 11.614,15.59 33.727,44.641 47.918,57.918 11.391,10.66 52.5,33.751 52.5,33.751 0,0 0.727,-20.661 0,-27.501 -4.246,-39.738 -33.441,-116.289 -33.75,-156.25 -0.246,-31.867 18.09,-93.891 25,-125 6.278,-28.258 27.5,-112.5 27.5,-112.5 0,0 2.602,60.859 1.875,81.25 -1.168,32.602 -14.761,96.141 -15.625,128.75 -0.523,19.801 5.125,59.281 8.75,78.75 5.614,30.18 31.25,118.75 31.25,118.75 0,0 40.066,-32.129 51.246,-45 7.85,-9.019 21.37,-29.078 26.25,-40 11.38,-25.391 23.46,-79.937 32.5,-106.25 6.88,-20 38.75,-72.5 38.75,-72.5 0,0 -15.03,56.242 -20,75 -9.43,35.609 -21.19,109.473 -37.5,142.5 -11.73,23.762 -62.91,81.041 -62.91,81.041 l -0.06,0.14 0.29,0.02 -2.39,39.93 c -19.15,320.76 -45.375,760.07 76.12,1012.79 l 11.66,24.24 c 34.92,-0.95 108.49,-2.38 137.61,1.53 41.25,5.54 121.26,32.42 158.43,51.14 30.61,15.41 83.86,59.98 105.83,87.09 16.55,20.4 50.42,92.08 50.42,92.08 0,0 -24.57,-15.04 -33.75,-17.5"
         style="fill:#50a537;fill-opacity:1;fill-rule:nonzero;stroke:none"
         id="path3754"
         inkscape:connector-curvature="0" /><path
         d="m 2490.14,1875.83 -5.49,17.46 -89.05,-11.25 7.37,-28.64 c 24.57,-95.43 37.03,-194.28 37.03,-293.83 0,-21.1 -0.59,-42.07 -1.69,-62.9 -26.19,27.44 -57.68,64.6 -87.88,108.34 -56.99,82.56 -89.84,161.23 -92.49,221.51 l -1.98,44.95 -89.91,-3.95 1.97,-44.96 c 7.7,-174.6 182.69,-377.92 258.89,-438.31 -84.9,-565.262 -573.77,-1000.078 -1162.32,-1000.078 -280.613,0 -552.27,100.5 -764.922,282.976 C 330.961,811.922 207.48,1000.94 142.25,1210.41 94.6484,1232.48 51.9102,1272.03 21.2969,1323.61 74.3633,1042.71 222.59,786.332 441.059,598.852 670.02,402.371 962.488,294.172 1264.59,294.172 c 697.75,0 1265.41,567.66 1265.41,1265.398 0,107.11 -13.41,213.51 -39.86,316.26"
         style="fill:#50a537;fill-opacity:1;fill-rule:nonzero;stroke:none"
         id="path3756"
         inkscape:connector-curvature="0" /><g
         id="g3758"
         transform="scale(10)"><g
   aria-label="ENSEMBLE POUR 
UNE ÉCOLOGIE
ACTIVE
"
   transform="matrix(1,0,0,-1,282.132,200.752)"
   style="font-variant:normal;font-weight:normal;font-size:58px;font-family:Montserrat;-inkscape-font-specification:Montserrat-Regular;writing-mode:lr-tb;fill:#50a537;fill-opacity:1;fill-rule:nonzero;stroke:none"
   id="text3766"><path
     d="M 5.6923828,-42.282227 H 32.426758 v 4.814454 H 11.413086 v 12.517578 h 20.135742 v 4.814453 H 11.413086 V -4.8144531 H 32.936523 V 0 H 5.6923828 Z"
     style=""
     id="path21" /><path
     d="M 44.493675,-42.282227 H 52.1968 L 70.944847,-6.9101562 V -42.282227 h 5.550781 V 0 H 68.792503 L 50.044456,-35.37207 V 0 h -5.550781 z"
     style=""
     id="path23" /><path
     d="m 116.99364,-40.894531 v 5.579101 q -3.25683,-1.557617 -6.1455,-2.322265 -2.88867,-0.764649 -5.5791,-0.764649 -4.67286,0 -7.221684,1.8125 -2.520508,1.8125 -2.520508,5.154297 0,2.803711 1.670898,4.248047 1.699219,1.416016 6.400394,2.293945 l 3.45508,0.708008 q 6.40039,1.217774 9.43066,4.304688 3.05859,3.058593 3.05859,8.21289 0,6.1455081 -4.13476,9.3173831 -4.10645,3.17187496 -12.06446,3.17187496 -3.00195,0 -6.400387,-0.6796875 -3.370117,-0.6796875 -6.995117,-2.01074216 v -5.890625 q 3.483399,1.9541015 6.825196,2.9453125 3.341798,0.9912109 6.570308,0.9912109 4.89942,0 7.56153,-1.9257812 2.66211,-1.9257813 2.66211,-5.4941406 0,-3.115234 -1.92578,-4.871094 -1.89747,-1.755859 -6.25879,-2.633789 l -3.4834,-0.679687 q -6.400392,-1.274414 -9.260744,-3.993164 -2.860352,-2.71875 -2.860352,-7.561524 0,-5.607422 3.936524,-8.835937 3.964844,-3.228516 10.903322,-3.228516 2.97363,0 6.06055,0.538086 3.08691,0.538086 6.31542,1.614258 z"
     style=""
     id="path25" /><path
     d="m 127.31638,-42.282227 h 26.73438 v 4.814454 h -21.01367 v 12.517578 h 20.13574 v 4.814453 h -20.13574 v 15.3212889 h 21.52343 V 0 h -27.24414 z"
     style=""
     id="path27" /><path
     d="m 166.11769,-42.282227 h 8.52442 l 10.79003,28.773438 10.84668,-28.773438 h 8.52442 V 0 h -5.5791 v -37.12793 l -10.90332,29.0000003 h -5.74903 L 171.66847,-37.12793 V 0 h -5.55078 z"
     style=""
     id="path29" /><path
     d="m 227.22762,-20.192383 v 15.4912111 h 9.17578 q 4.61621,0 6.82519,-1.8974609 2.23731,-1.9257813 2.23731,-5.8623052 0,-3.964843 -2.23731,-5.833984 -2.20898,-1.897461 -6.82519,-1.897461 z m 0,-17.388672 v 12.744141 h 8.46777 q 4.19141,0 6.23047,-1.557617 2.06738,-1.585938 2.06738,-4.814453 0,-3.200196 -2.06738,-4.786133 -2.03906,-1.585938 -6.23047,-1.585938 z m -5.72071,-4.701172 h 14.61328 q 6.542,0 10.08203,2.71875 3.54004,2.71875 3.54004,7.731446 0,3.879883 -1.8125,6.173828 -1.8125,2.293945 -5.32421,2.860351 4.21972,0.90625 6.54199,3.794922 2.35058,2.860352 2.35058,7.165039 0,5.6640629 -3.85156,8.7509769 Q 243.795,0 236.6866,0 h -15.17969 z"
     style=""
     id="path31" /><path
     d="m 265.23834,-42.282227 h 5.72071 v 37.4677739 h 20.58886 V 0 h -26.30957 z"
     style=""
     id="path33" /><path
     d="m 299.39941,-42.282227 h 26.73438 v 4.814454 h -21.01367 v 12.517578 h 20.13574 v 4.814453 h -20.13574 v 15.3212889 h 21.52343 V 0 h -27.24414 z"
     style=""
     id="path35" /><path
     d="m 359.11743,-37.581055 v 15.887696 h 7.19336 q 3.99317,0 6.17383,-2.067383 2.18066,-2.067383 2.18066,-5.890625 0,-3.794922 -2.18066,-5.862305 -2.18066,-2.067383 -6.17383,-2.067383 z m -5.7207,-4.701172 h 12.91406 q 7.1084,0 10.7334,3.228516 3.65332,3.200195 3.65332,9.402344 0,6.258789 -3.65332,9.458984 -3.625,3.200196 -10.7334,3.200196 h -7.19336 V 0 h -5.7207 z"
     style=""
     id="path37" /><path
     d="m 412.20282,-38.402344 q -6.23047,0 -9.91211,4.644532 -3.65332,4.644531 -3.65332,12.659179 0,7.986328 3.65332,12.6308596 3.68164,4.6445312 9.91211,4.6445312 6.23047,0 9.85547,-4.6445312 3.65332,-4.6445316 3.65332,-12.6308596 0,-8.014648 -3.65332,-12.659179 -3.625,-4.644532 -9.85547,-4.644532 z m 0,-4.644531 q 8.89258,0 14.2168,5.975586 5.32422,5.947266 5.32422,15.972656 0,9.99707 -5.32422,15.9726564 -5.32422,5.94726566 -14.2168,5.94726566 -8.9209,0 -14.27344,-5.94726566 -5.32422,-5.9472654 -5.32422,-15.9726564 0,-10.02539 5.32422,-15.972656 5.35254,-5.975586 14.27344,-5.975586 z"
     style=""
     id="path39" /><path
     d="m 443.05042,-42.282227 h 5.74902 v 25.686524 q 0,6.7968749 2.46387,9.798828 2.46386,2.9736328 7.98632,2.9736328 5.49414,0 7.95801,-2.9736328 2.46387,-3.0019531 2.46387,-9.798828 v -25.686524 h 5.74902 v 26.394532 q 0,8.2695309 -4.10644,12.4892575 -4.07813,4.21972656 -12.06446,4.21972656 -8.01464,0 -12.12109,-4.21972656 -4.07812,-4.2197266 -4.07812,-12.4892575 z"
     style=""
     id="path41" /><path
     d="m 509.68857,-19.824219 q 1.84082,0.623047 3.56836,2.66211 1.75586,2.039062 3.51172,5.607421 L 522.57431,0 h -6.14551 l -5.40918,-10.84668 q -2.0957,-4.248047 -4.07812,-5.635742 -1.9541,-1.387695 -5.35254,-1.387695 h -6.23047 V 0 h -5.7207 v -42.282227 h 12.91406 q 7.25,0 10.81836,3.030274 3.56836,3.030273 3.56836,9.147461 0,3.993164 -1.86914,6.626953 -1.84082,2.633789 -5.38086,3.65332 z m -14.33008,-17.756836 v 15.009766 h 7.19336 q 4.13476,0 6.23047,-1.897461 2.12402,-1.925781 2.12402,-5.635742 0,-3.709961 -2.12402,-5.579102 -2.09571,-1.897461 -6.23047,-1.897461 z"
     style=""
     id="path43" /><path
     d="m 5.0410156,30.217773 h 5.7490234 v 25.686524 q 0,6.796875 2.463867,9.798828 2.463867,2.973633 7.986328,2.973633 5.494141,0 7.958008,-2.973633 2.463867,-3.001953 2.463867,-9.798828 V 30.217773 h 5.749024 v 26.394532 q 0,8.269531 -4.106446,12.489257 -4.078125,4.219727 -12.064453,4.219727 -8.014648,0 -12.1210934,-4.219727 -4.078125,-4.219726 -4.078125,-12.489257 z"
     style=""
     id="path45" /><path
     d="m 48.172852,30.217773 h 7.703125 L 74.624023,65.589844 V 30.217773 h 5.550782 V 72.5 H 72.47168 L 53.723633,37.12793 V 72.5 h -5.550781 z"
     style=""
     id="path47" /><path
     d="m 91.55957,30.217773 h 26.73438 v 4.814454 H 97.280273 v 12.517578 h 20.135747 v 4.814453 H 97.280273 V 67.685547 H 118.80371 V 72.5 H 91.55957 Z"
     style=""
     id="path49" /><path
     d="m 146.72754,30.217773 h 26.73437 v 4.814454 h -21.01367 v 12.517578 h 20.13574 v 4.814453 h -20.13574 v 15.321289 h 21.52344 V 72.5 h -27.24414 z m 14.83984,-11.498046 h 5.23926 l -6.45703,7.476562 h -4.33301 z"
     style=""
     id="path51" /><path
     d="m 215.09277,33.474609 v 6.032227 q -2.88867,-2.69043 -6.17382,-4.021484 -3.25684,-1.331055 -6.93848,-1.331055 -7.25,0 -11.10156,4.446289 -3.85157,4.417969 -3.85157,12.800781 0,8.354492 3.85157,12.800781 3.85156,4.417969 11.10156,4.417969 3.68164,0 6.93848,-1.331055 3.28515,-1.331054 6.17382,-4.021484 v 5.975586 q -3.00195,2.039063 -6.37207,3.058594 -3.34179,1.019531 -7.08008,1.019531 -9.60058,0 -15.12304,-5.862305 -5.52246,-5.890625 -5.52246,-16.057617 0,-10.195312 5.52246,-16.057617 5.52246,-5.890625 15.12304,-5.890625 3.79493,0 7.13672,1.019531 3.37012,0.991211 6.31543,3.001953 z"
     style=""
     id="path53" /><path
     d="m 241.14746,34.097656 q -6.23047,0 -9.91211,4.644531 -3.65332,4.644532 -3.65332,12.65918 0,7.986328 3.65332,12.63086 3.68164,4.644531 9.91211,4.644531 6.23047,0 9.85547,-4.644531 3.65332,-4.644532 3.65332,-12.63086 0,-8.014648 -3.65332,-12.65918 -3.625,-4.644531 -9.85547,-4.644531 z m 0,-4.644531 q 8.89258,0 14.2168,5.975586 5.32422,5.947266 5.32422,15.972656 0,9.99707 -5.32422,15.972656 -5.32422,5.947266 -14.2168,5.947266 -8.9209,0 -14.27344,-5.947266 -5.32422,-5.947265 -5.32422,-15.972656 0,-10.02539 5.32422,-15.972656 5.35254,-5.975586 14.27344,-5.975586 z"
     style=""
     id="path55" /><path
     d="m 269.6377,30.217773 h 5.7207 v 37.467774 h 20.58887 V 72.5 H 269.6377 Z"
     style=""
     id="path57" /><path
     d="m 317.0459,34.097656 q -6.23047,0 -9.91211,4.644531 -3.65332,4.644532 -3.65332,12.65918 0,7.986328 3.65332,12.63086 3.68164,4.644531 9.91211,4.644531 6.23047,0 9.85547,-4.644531 3.65332,-4.644532 3.65332,-12.63086 0,-8.014648 -3.65332,-12.65918 -3.625,-4.644531 -9.85547,-4.644531 z m 0,-4.644531 q 8.89258,0 14.2168,5.975586 5.32421,5.947266 5.32421,15.972656 0,9.99707 -5.32421,15.972656 -5.32422,5.947266 -14.2168,5.947266 -8.9209,0 -14.27344,-5.947266 -5.32422,-5.947265 -5.32422,-15.972656 0,-10.02539 5.32422,-15.972656 5.35254,-5.975586 14.27344,-5.975586 z"
     style=""
     id="path59" /><path
     d="M 374.36621,66.467773 V 55.111328 h -9.3457 v -4.701172 h 15.00976 v 18.153321 q -3.31347,2.350585 -7.30664,3.568359 -3.99316,1.189453 -8.52441,1.189453 -9.91211,0 -15.51953,-5.777344 -5.5791,-5.805664 -5.5791,-16.142578 0,-10.365234 5.5791,-16.142578 5.60742,-5.805664 15.51953,-5.805664 4.13476,0 7.84473,1.019531 3.73828,1.019531 6.88183,3.001953 v 6.088868 q -3.17187,-2.69043 -6.74023,-4.049805 -3.56836,-1.359375 -7.50489,-1.359375 -7.75976,0 -11.66796,4.333008 -3.87989,4.333007 -3.87989,12.914062 0,8.552735 3.87989,12.885742 3.9082,4.333008 11.66796,4.333008 3.03028,0 5.40918,-0.509765 2.37891,-0.538086 4.27637,-1.642579 z"
     style=""
     id="path61" /><path
     d="m 390.50879,30.217773 h 5.7207 V 72.5 h -5.7207 z"
     style=""
     id="path63" /><path
     d="m 407.61426,30.217773 h 26.73437 v 4.814454 h -21.01367 v 12.517578 h 20.13574 v 4.814453 H 413.33496 V 67.685547 H 434.8584 V 72.5 h -27.24414 z"
     style=""
     id="path65" /><path
     d="m 19.824219,108.35352 -7.759766,21.04199 h 15.547852 z m -3.228516,-5.63575 h 6.485352 L 39.195312,145 H 33.248047 L 29.396484,134.15332 H 10.336914 L 6.4853516,145 H 0.453125 Z"
     style=""
     id="path67" /><path
     d="m 75.983398,105.97461 v 6.03223 q -2.888671,-2.69043 -6.173828,-4.02149 -3.256836,-1.33105 -6.938476,-1.33105 -7.25,0 -11.101563,4.44629 -3.851562,4.41796 -3.851562,12.80078 0,8.35449 3.851562,12.80078 3.851563,4.41797 11.101563,4.41797 3.68164,0 6.938476,-1.33106 3.285157,-1.33105 6.173828,-4.02148 v 5.97558 q -3.001953,2.03907 -6.37207,3.0586 -3.341797,1.01953 -7.080078,1.01953 -9.600586,0 -15.123047,-5.86231 -5.522461,-5.89062 -5.522461,-16.05761 0,-10.19532 5.522461,-16.05762 5.522461,-5.89062 15.123047,-5.89062 3.794922,0 7.136719,1.01953 3.370117,0.99121 6.315429,3.00195 z"
     style=""
     id="path69" /><path
     d="m 79.013672,102.71777 h 35.768558 v 4.81446 H 99.772461 V 145 H 94.023437 V 107.53223 H 79.013672 Z"
     style=""
     id="path71" /><path
     d="m 120.33301,102.71777 h 5.7207 V 145 h -5.7207 z"
     style=""
     id="path73" /><path
     d="m 148.3418,145 -16.14258,-42.28223 h 5.97558 l 13.39551,35.59864 13.42383,-35.59864 h 5.94727 L 154.82715,145 Z"
     style=""
     id="path75" /><path
     d="m 177.08691,102.71777 h 26.73438 v 4.81446 h -21.01367 v 12.51757 h 20.13574 v 4.81446 h -20.13574 v 15.32129 h 21.52343 V 145 h -27.24414 z"
     style=""
     id="path77" /></g>
</g></g></g></svg>